<svg width="33" height="33" viewBox="0 0 33 33" fill="none" xmlns="http://www.w3.org/2000/svg">
<g clip-path="url(#clip0_375_2805)">
<path d="M31.6154 20.0676C29.5039 28.5383 20.9217 33.6875 12.4631 31.5759C3.99216 29.4644 -1.15707 20.8826 0.95455 12.4241C3.06605 3.95346 11.6358 -1.19577 20.1067 0.915855C28.5653 3.01501 33.727 11.5968 31.6154 20.0676Z" fill="url(#paint0_linear_375_2805)"/>
<path d="M23.8091 14.2768C24.1178 12.1779 22.5251 11.042 20.3274 10.2889L21.0435 7.43687L19.315 7.00474L18.6236 9.7827C18.1668 9.67158 17.6976 9.56047 17.2284 9.46169L17.9198 6.67139L16.1913 6.23926L15.4876 9.07895C15.1048 8.99253 14.7344 8.9061 14.3764 8.81968V8.80733L11.9812 8.2147L11.5243 10.0667C11.5243 10.0667 12.8084 10.363 12.7837 10.3753C13.4874 10.5482 13.6109 11.0174 13.5862 11.3877L12.7713 14.6349C12.8207 14.6472 12.8824 14.6596 12.9565 14.6966C12.8948 14.6843 12.8331 14.6719 12.7713 14.6472L11.6355 19.1907C11.549 19.4006 11.3268 19.7216 10.8453 19.5982C10.8576 19.6229 9.58593 19.2895 9.58593 19.2895L8.72168 21.2773L10.9811 21.8452C11.4009 21.9564 11.8083 22.0551 12.2157 22.1662L11.4996 25.043L13.2282 25.4751L13.9442 22.6231C14.4134 22.7465 14.8826 22.87 15.3271 22.9811L14.6233 25.8208L16.3518 26.2529L17.0679 23.3762C20.0311 23.9318 22.2534 23.7096 23.1794 21.0304C23.9326 18.8821 23.1424 17.6351 21.5867 16.8202C22.735 16.5609 23.5869 15.8078 23.8091 14.2768V14.2768ZM19.8459 19.8328C19.315 21.981 15.6851 20.8205 14.5122 20.5242L15.4629 16.7091C16.6358 17.0054 20.4138 17.5857 19.8459 19.8328ZM20.3891 14.2398C19.8953 16.2029 16.8827 15.2028 15.9073 14.9559L16.7716 11.4989C17.747 11.7458 20.8953 12.2026 20.3891 14.2398Z" fill="white"/>
</g>
<defs>
<linearGradient id="paint0_linear_375_2805" x1="16.2761" y1="0.434797" x2="16.2761" y2="32.0462" gradientUnits="userSpaceOnUse">
<stop stop-color="#F9AA4B"/>
<stop offset="1" stop-color="#F7931A"/>
</linearGradient>
<clipPath id="clip0_375_2805">
<rect width="31.607" height="31.607" fill="white" transform="translate(0.480957 0.442383)"/>
</clipPath>
</defs>
</svg>
