<svg width="33" height="33" viewBox="0 0 33 33" fill="none" xmlns="http://www.w3.org/2000/svg">
<g clip-path="url(#clip0_375_2810)">
<path d="M16.2845 32.1002C7.556 32.1002 0.480957 25.0252 0.480957 16.2967C0.480957 7.5682 7.556 0.493164 16.2845 0.493164C25.013 0.493164 32.088 7.5682 32.088 16.2967C32.088 25.0252 25.013 32.1002 16.2845 32.1002ZM12.4482 14.7203L16.2845 10.884L20.1228 14.7223L22.355 12.49L16.2845 6.41948L10.2159 12.488L12.4482 14.7203ZM6.40728 16.2967L8.63952 18.5289L10.8718 16.2967L8.63952 14.0644L6.40728 16.2967ZM12.4482 17.8731L10.213 20.1024L10.2159 20.1053L16.2845 26.1739L22.355 20.1034V20.1024L20.1228 17.8701L16.2845 21.7094L12.4482 17.8731ZM21.6972 16.2967L23.9294 18.5289L26.1617 16.2967L23.9294 14.0644L21.6972 16.2967ZM18.5483 16.2947H18.5493L16.2845 14.0309L14.6103 15.7041L14.4177 15.8967L14.0216 16.2937L14.0177 16.2967L14.0216 16.2996L16.2835 18.5625L18.5493 16.2977L18.5503 16.2967L18.5483 16.2957V16.2947Z" fill="#FFD233"/>
</g>
<defs>
<clipPath id="clip0_375_2810">
<rect width="31.607" height="31.607" fill="white" transform="translate(0.480957 0.493164)"/>
</clipPath>
</defs>
</svg>
