<svg width="90" height="90" viewBox="0 0 90 90" fill="none" xmlns="http://www.w3.org/2000/svg">
<path d="M2.82275 45.0176C2.82275 63.3056 14.5494 78.8016 30.7435 84.5253V5.50977C14.5494 11.2335 2.82275 26.7295 2.82275 45.0176Z" fill="#83BF4F"/>
<path d="M86.5848 45.0175C86.5848 26.7295 74.9977 11.2335 58.6641 5.50977V84.5253C74.9977 78.8016 86.5848 63.3056 86.5848 45.0175Z" fill="#83BF4F"/>
<path d="M30.7434 84.5255C35.0711 86.0612 39.8176 86.8988 44.7038 86.8988C49.5899 86.8988 54.3364 86.0612 58.6641 84.5255V5.50998C54.3364 3.97434 49.5899 3.13672 44.7038 3.13672C39.8176 3.13672 35.0711 3.97434 30.7434 5.50998V84.5255V84.5255Z" fill="#F9F9F9"/>
</svg>
